<?xml version="1.0" encoding="UTF-8" standalone="no"?>
<svg width="1280px" class="o-demo__desktop" viewBox="0 0 1280 850" version="1.1" xmlns="http://www.w3.org/2000/svg" xmlns:xlink="http://www.w3.org/1999/xlink" style="background: #FFFFFF;">
    <!-- Generator: Sketch 39.1 (31720) - http://www.bohemiancoding.com/sketch -->
    <title>Desktop Landscape</title>
    <desc>Created with Sketch.</desc>
    <defs>
        <linearGradient x1="50%" y1="0%" x2="50%" y2="100%" id="linearGradient-1">
            <stop stop-color="#00A3E1" offset="0%"></stop>
            <stop stop-color="#11CCE9" offset="100%"></stop>
        </linearGradient>
        <rect id="path-2" x="0" y="0" width="640" height="614"></rect>
        <filter x="-50%" y="-50%" width="200%" height="200%" filterUnits="objectBoundingBox" id="filter-3">
            <feOffset dx="12" dy="12" in="SourceAlpha" result="shadowOffsetOuter1"></feOffset>
            <feGaussianBlur stdDeviation="12.5" in="shadowOffsetOuter1" result="shadowBlurOuter1"></feGaussianBlur>
            <feColorMatrix values="0 0 0 0 0   0 0 0 0 0   0 0 0 0 0  0 0 0 0.15 0" type="matrix" in="shadowBlurOuter1"></feColorMatrix>
        </filter>
        <rect id="path-4" x="0" y="0" width="576" height="368"></rect>
        <filter x="-50%" y="-50%" width="200%" height="200%" filterUnits="objectBoundingBox" id="filter-5">
            <feOffset dx="12" dy="12" in="SourceAlpha" result="shadowOffsetOuter1"></feOffset>
            <feGaussianBlur stdDeviation="12.5" in="shadowOffsetOuter1" result="shadowBlurOuter1"></feGaussianBlur>
            <feColorMatrix values="0 0 0 0 0   0 0 0 0 0   0 0 0 0 0  0 0 0 0.15 0" type="matrix" in="shadowBlurOuter1"></feColorMatrix>
        </filter>
        <rect id="path-6" x="0" y="0" width="421" height="278"></rect>
        <filter x="-50%" y="-50%" width="200%" height="200%" filterUnits="objectBoundingBox" id="filter-7">
            <feOffset dx="12" dy="12" in="SourceAlpha" result="shadowOffsetOuter1"></feOffset>
            <feGaussianBlur stdDeviation="12.5" in="shadowOffsetOuter1" result="shadowBlurOuter1"></feGaussianBlur>
            <feColorMatrix values="0 0 0 0 0   0 0 0 0 0   0 0 0 0 0  0 0 0 0.15 0" type="matrix" in="shadowBlurOuter1"></feColorMatrix>
        </filter>
        <linearGradient x1="50%" y1="0%" x2="50%" y2="100%" id="linearGradient-8">
            <stop stop-color="#E8E6E8" offset="0%"></stop>
            <stop stop-color="#D1CFD1" offset="100%"></stop>
        </linearGradient>
        <rect id="path-9" x="0" y="0" width="539" height="352"></rect>
        <filter x="-50%" y="-50%" width="200%" height="200%" filterUnits="objectBoundingBox" id="filter-10">
            <feOffset dx="12" dy="12" in="SourceAlpha" result="shadowOffsetOuter1"></feOffset>
            <feGaussianBlur stdDeviation="12.5" in="shadowOffsetOuter1" result="shadowBlurOuter1"></feGaussianBlur>
            <feColorMatrix values="0 0 0 0 0   0 0 0 0 0   0 0 0 0 0  0 0 0 0.15 0" type="matrix" in="shadowBlurOuter1"></feColorMatrix>
        </filter>
        <rect id="path-11" x="0" y="0" width="607" height="504"></rect>
        <filter x="-50%" y="-50%" width="200%" height="200%" filterUnits="objectBoundingBox" id="filter-12">
            <feOffset dx="12" dy="12" in="SourceAlpha" result="shadowOffsetOuter1"></feOffset>
            <feGaussianBlur stdDeviation="12.5" in="shadowOffsetOuter1" result="shadowBlurOuter1"></feGaussianBlur>
            <feColorMatrix values="0 0 0 0 0   0 0 0 0 0   0 0 0 0 0  0 0 0 0.15 0" type="matrix" in="shadowBlurOuter1"></feColorMatrix>
        </filter>
        <filter x="-50%" y="-50%" width="200%" height="200%" filterUnits="objectBoundingBox" id="filter-13">
            <feOffset dx="12" dy="12" in="SourceAlpha" result="shadowOffsetOuter1"></feOffset>
            <feGaussianBlur stdDeviation="12.5" in="shadowOffsetOuter1" result="shadowBlurOuter1"></feGaussianBlur>
            <feColorMatrix values="0 0 0 0 0   0 0 0 0 0   0 0 0 0 0  0 0 0 0.15 0" type="matrix" in="shadowBlurOuter1" result="shadowMatrixOuter1"></feColorMatrix>
            <feMerge>
                <feMergeNode in="shadowMatrixOuter1"></feMergeNode>
                <feMergeNode in="SourceGraphic"></feMergeNode>
            </feMerge>
        </filter>
        <rect id="path-14" x="0" y="0" width="576" height="458"></rect>
        <filter x="-50%" y="-50%" width="200%" height="200%" filterUnits="objectBoundingBox" id="filter-15">
            <feOffset dx="12" dy="12" in="SourceAlpha" result="shadowOffsetOuter1"></feOffset>
            <feGaussianBlur stdDeviation="12.5" in="shadowOffsetOuter1" result="shadowBlurOuter1"></feGaussianBlur>
            <feColorMatrix values="0 0 0 0 0   0 0 0 0 0   0 0 0 0 0  0 0 0 0.15 0" type="matrix" in="shadowBlurOuter1"></feColorMatrix>
        </filter>
        <rect id="path-16" x="0" y="0" width="432" height="283"></rect>
        <filter x="-50%" y="-50%" width="200%" height="200%" filterUnits="objectBoundingBox" id="filter-17">
            <feOffset dx="12" dy="12" in="SourceAlpha" result="shadowOffsetOuter1"></feOffset>
            <feGaussianBlur stdDeviation="12.5" in="shadowOffsetOuter1" result="shadowBlurOuter1"></feGaussianBlur>
            <feColorMatrix values="0 0 0 0 0   0 0 0 0 0   0 0 0 0 0  0 0 0 0.15 0" type="matrix" in="shadowBlurOuter1"></feColorMatrix>
        </filter>
        <filter x="-50%" y="-50%" width="200%" height="200%" filterUnits="objectBoundingBox" id="filter-18">
            <feOffset dx="12" dy="12" in="SourceAlpha" result="shadowOffsetOuter1"></feOffset>
            <feGaussianBlur stdDeviation="12.5" in="shadowOffsetOuter1" result="shadowBlurOuter1"></feGaussianBlur>
            <feColorMatrix values="0 0 0 0 0   0 0 0 0 0   0 0 0 0 0  0 0 0 0.15 0" type="matrix" in="shadowBlurOuter1" result="shadowMatrixOuter1"></feColorMatrix>
            <feMerge>
                <feMergeNode in="shadowMatrixOuter1"></feMergeNode>
                <feMergeNode in="SourceGraphic"></feMergeNode>
            </feMerge>
        </filter>
        <rect id="path-19" x="0" y="0" width="496" height="324"></rect>
        <filter x="-50%" y="-50%" width="200%" height="200%" filterUnits="objectBoundingBox" id="filter-20">
            <feOffset dx="12" dy="12" in="SourceAlpha" result="shadowOffsetOuter1"></feOffset>
            <feGaussianBlur stdDeviation="12.5" in="shadowOffsetOuter1" result="shadowBlurOuter1"></feGaussianBlur>
            <feColorMatrix values="0 0 0 0 0   0 0 0 0 0   0 0 0 0 0  0 0 0 0.15 0" type="matrix" in="shadowBlurOuter1"></feColorMatrix>
        </filter>
        <rect id="path-21" x="389" y="0" width="107" height="324"></rect>
        <mask id="mask-22" maskContentUnits="userSpaceOnUse" maskUnits="objectBoundingBox" x="0" y="0" width="107" height="324" fill="white">
            <use xlink:href="#path-21"></use>
        </mask>
        <rect id="path-23" x="0" y="244" width="389" height="80"></rect>
        <mask id="mask-24" maskContentUnits="userSpaceOnUse" maskUnits="objectBoundingBox" x="0" y="0" width="389" height="80" fill="white">
            <use xlink:href="#path-23"></use>
        </mask>
        <rect id="path-25" x="0" y="244" width="389" height="19"></rect>
        <mask id="mask-26" maskContentUnits="userSpaceOnUse" maskUnits="objectBoundingBox" x="0" y="0" width="389" height="19" fill="white">
            <use xlink:href="#path-25"></use>
        </mask>
        <rect id="path-27" x="0" y="0" width="318" height="252"></rect>
        <filter x="-50%" y="-50%" width="200%" height="200%" filterUnits="objectBoundingBox" id="filter-28">
            <feOffset dx="12" dy="12" in="SourceAlpha" result="shadowOffsetOuter1"></feOffset>
            <feGaussianBlur stdDeviation="12.5" in="shadowOffsetOuter1" result="shadowBlurOuter1"></feGaussianBlur>
            <feColorMatrix values="0 0 0 0 0   0 0 0 0 0   0 0 0 0 0  0 0 0 0.15 0" type="matrix" in="shadowBlurOuter1"></feColorMatrix>
        </filter>
    </defs>
    <g id="Desktop-Example" class="shadow" stroke="none" stroke-width="1" fill="none" fill-rule="evenodd">
        <g id="Desktop-Landscape">
            <rect id="Rectangle-2" fill="url(#linearGradient-1)" x="0" y="0" width="1280" height="850"></rect>

            <g id="Photoshop" transform="translate(32.000000, 23.000000)"
                data-app="photoshop"
                data-role="window"
                data-index="6"
                class="o-demo__window">
                <g id="Rectangle-30">
                    <use fill="black" fill-opacity="1" filter="url(#filter-3)" xlink:href="#path-2"></use>
                    <use fill="#535353" fill-rule="evenodd" xlink:href="#path-2"></use>
                </g>
                <g id="Exit-Buttons" transform="translate(8.000000, 8.000000)">
                    <circle id="Oval-Copy-2" fill="#34C749" cx="56" cy="8" r="8"></circle>
                    <path d="M8,16 C12.418278,16 16,12.418278 16,8 C16,3.581722 12.418278,0 8,0 C3.581722,0 0,3.581722 0,8 C0,12.418278 3.581722,16 8,16 Z" id="Oval" fill="#FC605C"></path>
                    <path d="M32,16 C36.418278,16 40,12.418278 40,8 C40,3.581722 36.418278,0 32,0 C27.581722,0 24,3.581722 24,8 C24,12.418278 27.581722,16 32,16 Z" id="Oval-Copy" fill="#FDBC40"></path>
                </g>
                <rect id="Rectangle-31" fill="#28282A" x="16" y="51" width="537" height="544"></rect>
            </g>
            <g id="Chrome" transform="translate(640.000000, 297.000000)"
                data-app="chrome"
                data-role="window"
                data-index="3"
                class="o-demo__window">
                <g id="Rectangle-Copy-2">
                    <use fill="black" fill-opacity="1" filter="url(#filter-5)" xlink:href="#path-4"></use>
                    <use fill="#F0F5F7" fill-rule="evenodd" xlink:href="#path-4"></use>
                </g>
                <g id="Exit-Buttons" transform="translate(8.000000, 8.000000)">
                    <circle id="Oval-Copy-2" fill="#34C749" cx="56" cy="8" r="8"></circle>
                    <path d="M8,16 C12.418278,16 16,12.418278 16,8 C16,3.581722 12.418278,0 8,0 C3.581722,0 0,3.581722 0,8 C0,12.418278 3.581722,16 8,16 Z" id="Oval" fill="#FC605C"></path>
                    <path d="M32,16 C36.418278,16 40,12.418278 40,8 C40,3.581722 36.418278,0 32,0 C27.581722,0 24,3.581722 24,8 C24,12.418278 27.581722,16 32,16 Z" id="Oval-Copy" fill="#FDBC40"></path>
                </g>
            </g>
            <g id="Sketch" transform="translate(68.000000, 395.000000)"
                data-app="sketch"
                data-role="window"
                data-index="4"
                class="o-demo__window">
                <g id="Rectangle">
                    <use fill="black" fill-opacity="1" filter="url(#filter-7)" xlink:href="#path-6"></use>
                    <use fill="#F2F2F2" fill-rule="evenodd" xlink:href="#path-6"></use>
                </g>
                <rect id="Rectangle-10" fill="#FFFFFF" x="163" y="75" width="95.5772114" height="170"></rect>
                <rect id="Rectangle-7" fill="url(#linearGradient-8)" x="0" y="0" width="421" height="42"></rect>
                <rect id="Rectangle-8" fill="#ECECEC" x="0" y="42" width="108" height="236"></rect>
                <rect id="Rectangle-9" fill="#E6E6E6" x="329" y="42" width="92" height="236"></rect>
                <g id="Exit-Buttons" transform="translate(8.000000, 8.000000)">
                    <circle id="Oval-Copy-2" fill="#34C749" cx="56" cy="8" r="8"></circle>
                    <path d="M8,16 C12.418278,16 16,12.418278 16,8 C16,3.581722 12.418278,0 8,0 C3.581722,0 0,3.581722 0,8 C0,12.418278 3.581722,16 8,16 Z" id="Oval" fill="#FC605C"></path>
                    <path d="M32,16 C36.418278,16 40,12.418278 40,8 C40,3.581722 36.418278,0 32,0 C27.581722,0 24,3.581722 24,8 C24,12.418278 27.581722,16 32,16 Z" id="Oval-Copy" fill="#FDBC40"></path>
                </g>
            </g>
            <g id="Slack" transform="translate(704.000000, 26.000000)"
                data-app="slack"
                data-role="window"
                data-index="5"
                class="o-demo__window">
                <g id="Rectangle-12">
                    <use fill="black" fill-opacity="1" filter="url(#filter-10)" xlink:href="#path-9"></use>
                    <use fill="#FFFFFF" fill-rule="evenodd" xlink:href="#path-9"></use>
                </g>
                <rect id="Rectangle-13" fill="#4D394B" x="0" y="0" width="144" height="352"></rect>
                <rect id="Rectangle-14" fill="#332732" x="0" y="0" width="40" height="352"></rect>
                <g id="Exit-Buttons" transform="translate(8.000000, 8.000000)">
                    <circle id="Oval-Copy-2" fill="#34C749" cx="56" cy="8" r="8"></circle>
                    <path d="M8,16 C12.418278,16 16,12.418278 16,8 C16,3.581722 12.418278,0 8,0 C3.581722,0 0,3.581722 0,8 C0,12.418278 3.581722,16 8,16 Z" id="Oval" fill="#FC605C"></path>
                    <path d="M32,16 C36.418278,16 40,12.418278 40,8 C40,3.581722 36.418278,0 32,0 C27.581722,0 24,3.581722 24,8 C24,12.418278 27.581722,16 32,16 Z" id="Oval-Copy" fill="#FDBC40"></path>
                </g>
            </g>
            <g id="Ableton" transform="translate(118.000000, 328.000000)"
                data-app="ableton"
                data-role="window"
                data-index="7"
                class="o-demo__window">
                <g id="Rectangle-15">
                    <use fill="black" fill-opacity="1" filter="url(#filter-12)" xlink:href="#path-11"></use>
                    <use fill="#C4C4C4" fill-rule="evenodd" xlink:href="#path-11"></use>
                </g>
                <rect id="Rectangle-16" stroke="#6A6A6A" stroke-width="8" stroke-linecap="round" stroke-linejoin="round" x="175.76431" y="409.911227" width="420.335578" height="83.5613577"></rect>
                <rect id="Rectangle-16-Copy-2" stroke="#6A6A6A" stroke-width="8" stroke-linecap="round" stroke-linejoin="round" x="175.76431" y="57.9007833" width="420.335578" height="332.929504"></rect>
                <rect id="Rectangle-16-Copy-3" stroke="#6A6A6A" stroke-width="8" stroke-linecap="round" stroke-linejoin="round" x="10.9001122" y="57.9007833" width="143.063973" height="332.929504"></rect>
                <rect id="Rectangle-16-Copy" stroke="#6A6A6A" stroke-width="8" stroke-linecap="round" stroke-linejoin="round" x="10.9001122" y="409.911227" width="143.063973" height="83.5613577"></rect>
                <g id="Exit-Buttons" transform="translate(5.450056, 5.263708)">
                    <ellipse id="Oval-Copy-2" fill="#34C749" cx="38.1503928" cy="5.26370757" rx="5.45005612" ry="5.26370757"></ellipse>
                    <path d="M5.45005612,10.5274151 C8.460039,10.5274151 10.9001122,8.17077299 10.9001122,5.26370757 C10.9001122,2.35664215 8.460039,0 5.45005612,0 C2.44007324,0 0,2.35664215 0,5.26370757 C0,8.17077299 2.44007324,10.5274151 5.45005612,10.5274151 Z" id="Oval" fill="#FC605C"></path>
                    <path d="M21.8002245,10.5274151 C24.8102073,10.5274151 27.2502806,8.17077299 27.2502806,5.26370757 C27.2502806,2.35664215 24.8102073,0 21.8002245,0 C18.7902416,0 16.3501684,2.35664215 16.3501684,5.26370757 C16.3501684,8.17077299 18.7902416,10.5274151 21.8002245,10.5274151 Z" id="Oval-Copy" fill="#FDBC40"></path>
                </g>
            </g>
            <g id="Chat" filter="url(#filter-13)" transform="translate(584.000000, 78.000000)"
                data-app="chat"
                data-role="window"
                data-index="8"
                class="o-demo__window">
                <rect id="Rectangle-17" fill="#FFFFFF" x="0" y="0" width="404" height="276"></rect>
                <path d="M107.5,1.5 L107.5,277.5" id="Line" stroke="#979797" stroke-linecap="square"></path>
                <g id="Exit-Buttons" transform="translate(8.000000, 8.000000)">
                    <circle id="Oval-Copy-2" fill="#34C749" cx="56" cy="8" r="8"></circle>
                    <path d="M8,16 C12.418278,16 16,12.418278 16,8 C16,3.581722 12.418278,0 8,0 C3.581722,0 0,3.581722 0,8 C0,12.418278 3.581722,16 8,16 Z" id="Oval" fill="#FC605C"></path>
                    <path d="M32,16 C36.418278,16 40,12.418278 40,8 C40,3.581722 36.418278,0 32,0 C27.581722,0 24,3.581722 24,8 C24,12.418278 27.581722,16 32,16 Z" id="Oval-Copy" fill="#FDBC40"></path>
                </g>
                <rect id="Rectangle-18" stroke="#1787FB" stroke-width="7" stroke-linecap="round" stroke-linejoin="round" fill="#1787FB" x="294" y="219" width="96" height="24"></rect>
                <rect id="Rectangle-18" stroke="#1787FB" stroke-width="7" stroke-linecap="round" stroke-linejoin="round" fill="#1787FB" x="294" y="131" width="96" height="24"></rect>
                <rect id="Rectangle-18-Copy" stroke="#1787FB" stroke-width="7" stroke-linecap="round" stroke-linejoin="round" fill="#1787FB" x="294" y="100" width="96" height="24"></rect>
                <rect id="Rectangle-18" stroke="#1787FB" stroke-width="7" stroke-linecap="round" stroke-linejoin="round" fill="#1787FB" x="294" y="217" width="96" height="24"></rect>
                <rect id="Rectangle-19" stroke="#F1F0F0" stroke-width="7" stroke-linecap="round" stroke-linejoin="round" fill="#F1F0F0" x="133" y="171" width="92" height="32"></rect>
                <rect id="Rectangle-19" stroke="#F1F0F0" stroke-width="7" stroke-linecap="round" stroke-linejoin="round" fill="#F1F0F0" x="133" y="48" width="92" height="32"></rect>
            </g>

            <g id="Finder" transform="translate(288.000000, 278.000000)"
                data-app="finder"
                data-role="window"
                data-index="0"
                class="o-demo__window">
                <g id="Rectangle-27">
                    <use fill="black" fill-opacity="1" filter="url(#filter-17)" xlink:href="#path-16"></use>
                    <use fill="#D8D8D8" fill-rule="evenodd" xlink:href="#path-16"></use>
                </g>
                <g id="Exit-Buttons" transform="translate(8.000000, 8.000000)">
                    <circle id="Oval-Copy-2" fill="#34C749" cx="56" cy="8" r="8"></circle>
                    <path d="M8,16 C12.418278,16 16,12.418278 16,8 C16,3.581722 12.418278,0 8,0 C3.581722,0 0,3.581722 0,8 C0,12.418278 3.581722,16 8,16 Z" id="Oval" fill="#FC605C"></path>
                    <path d="M32,16 C36.418278,16 40,12.418278 40,8 C40,3.581722 36.418278,0 32,0 C27.581722,0 24,3.581722 24,8 C24,12.418278 27.581722,16 32,16 Z" id="Oval-Copy" fill="#FDBC40"></path>
                </g>
                <rect id="Rectangle-28" fill="#EFEFEF" x="0" y="41" width="80" height="242"></rect>
                <rect id="Rectangle-29" fill="#F5F5F5" x="80" y="41" width="352" height="242"></rect>
            </g>
            <g id="Atom" transform="translate(361.000000, 158.000000)"
                data-app="atom"
                data-role="window"
                data-index="1"
                class="o-demo__window">
                <g id="Rectangle-Copy">
                    <use fill="black" fill-opacity="1" filter="url(#filter-15)" xlink:href="#path-14"></use>
                    <use fill="#262F31" fill-rule="evenodd" xlink:href="#path-14"></use>
                </g>
                <g id="Exit-Buttons" transform="translate(8.000000, 8.000000)">
                    <circle id="Oval-Copy-2" fill="#34C749" cx="56" cy="8" r="8"></circle>
                    <path d="M8,16 C12.418278,16 16,12.418278 16,8 C16,3.581722 12.418278,0 8,0 C3.581722,0 0,3.581722 0,8 C0,12.418278 3.581722,16 8,16 Z" id="Oval" fill="#FC605C"></path>
                    <path d="M32,16 C36.418278,16 40,12.418278 40,8 C40,3.581722 36.418278,0 32,0 C27.581722,0 24,3.581722 24,8 C24,12.418278 27.581722,16 32,16 Z" id="Oval-Copy" fill="#FDBC40"></path>
                </g>
                <g id="Code" transform="translate(24.000000, 48.000000)">
                    <rect id="Rectangle-6" fill="#FFFBEA" x="0" y="72" width="90" height="8"></rect>
                    <rect id="Rectangle-4" fill="#7FBC97" x="88" y="48" width="92" height="8"></rect>
                    <rect id="Rectangle-5" fill="#DBB1BC" x="0" y="48" width="75" height="8"></rect>
                    <rect id="Rectangle-4" fill="#7FBC97" x="278" y="0" width="38" height="8"></rect>
                    <rect id="Rectangle-3" fill="#7FBC97" x="0" y="0" width="264" height="8"></rect>
                    <rect id="Rectangle-4" fill="#7FBC97" x="0" y="24" width="38" height="8"></rect>
                    <rect id="Rectangle-4-Copy" fill="#7FBC97" x="48" y="24" width="118" height="8"></rect>
                </g>
            </g>

            <g id="Xcode" filter="url(#filter-18)" transform="translate(640.000000, 454.000000)"
                data-app="xcode"
                data-role="window"
                data-index="9"
                class="o-demo__window">
                <g id="Rectangle-20">
                    <use fill="black" fill-opacity="1" filter="url(#filter-20)" xlink:href="#path-19"></use>
                    <use fill="#FFFFFF" fill-rule="evenodd" xlink:href="#path-19"></use>
                </g>
                <g id="Ui" stroke="#979797" stroke-width="2">
                    <use id="Rectangle-21" mask="url(#mask-22)" fill="#F2F2F2" xlink:href="#path-21"></use>
                    <use id="Rectangle-22" mask="url(#mask-24)" fill="#FFFFFF" xlink:href="#path-23"></use>
                    <use id="Rectangle-23" mask="url(#mask-26)" fill="#F2F2F2" xlink:href="#path-25"></use>
                </g>
                <g id="Exit-Buttons" transform="translate(8.000000, 8.000000)">
                    <circle id="Oval-Copy-2" fill="#34C749" cx="56" cy="8" r="8"></circle>
                    <path d="M8,16 C12.418278,16 16,12.418278 16,8 C16,3.581722 12.418278,0 8,0 C3.581722,0 0,3.581722 0,8 C0,12.418278 3.581722,16 8,16 Z" id="Oval" fill="#FC605C"></path>
                    <path d="M32,16 C36.418278,16 40,12.418278 40,8 C40,3.581722 36.418278,0 32,0 C27.581722,0 24,3.581722 24,8 C24,12.418278 27.581722,16 32,16 Z" id="Oval-Copy" fill="#FDBC40"></path>
                </g>
                <g id="Code" transform="translate(24.000000, 48.000000)">
                    <rect id="Rectangle-26" fill="#56942A" x="2" y="0" width="96" height="8"></rect>
                    <rect id="Rectangle-25" fill="#2F261E" x="110" y="17" width="91" height="8"></rect>
                    <rect id="Rectangle-24" fill="#6F44A8" x="0" y="17" width="100" height="8"></rect>
                </g>
            </g>
            <g id="iTerm" transform="translate(354.000000, 395.000000)"
                data-app="iterm"
                data-role="window"
                data-index="2"
                class="o-demo__window">
                <g id="Rectangle-11">
                    <use fill="black" fill-opacity="1" filter="url(#filter-28)" xlink:href="#path-27"></use>
                    <use fill="#444347" fill-rule="evenodd" xlink:href="#path-27"></use>
                </g>
                <g id="Exit-Buttons" transform="translate(8.000000, 8.000000)">
                    <circle id="Oval-Copy-2" fill="#34C749" cx="56" cy="8" r="8"></circle>
                    <path d="M8,16 C12.418278,16 16,12.418278 16,8 C16,3.581722 12.418278,0 8,0 C3.581722,0 0,3.581722 0,8 C0,12.418278 3.581722,16 8,16 Z" id="Oval" fill="#FC605C"></path>
                    <path d="M32,16 C36.418278,16 40,12.418278 40,8 C40,3.581722 36.418278,0 32,0 C27.581722,0 24,3.581722 24,8 C24,12.418278 27.581722,16 32,16 Z" id="Oval-Copy" fill="#FDBC40"></path>
                </g>
                <text id="➜-~" font-family="ZapfDingbatsITC, Zapf Dingbats" font-size="18" font-weight="normal">
                    <tspan x="8.27294922" y="53" fill="#7FBC97">➜</tspan>
                    <tspan x="24.9545898" y="53" font-family="LucidaGrande, Lucida Grande" fill="#E86262">  ~</tspan>
                </text>
            </g>
        </g>
    </g>
</svg>
